<?xml version="1.0" standalone="no"?>
<!DOCTYPE svg PUBLIC "-//W3C//DTD SVG 20010904//EN"
 "http://www.w3.org/TR/2001/REC-SVG-20010904/DTD/svg10.dtd">
<svg version="1.0" xmlns="http://www.w3.org/2000/svg"
 width="1005.000000pt" height="1017.000000pt" viewBox="0 0 1005.000000 1017.000000"
 preserveAspectRatio="xMidYMid meet">

<g transform="translate(0.000000,1017.000000) scale(0.100000,-0.100000)"
fill="#000000" stroke="none">
<path d="M5093 9658 c-54 -59 -111 -142 -145 -213 -31 -65 -33 -77 -33 -175 0
-96 3 -114 38 -210 29 -77 40 -127 44 -189 4 -52 2 -82 -3 -78 -6 3 -45 51
-89 106 -43 55 -82 98 -86 96 -16 -11 -80 -156 -93 -215 -50 -211 37 -412 219
-507 105 -54 113 -53 63 9 -60 73 -85 116 -108 184 -11 31 -20 58 -20 60 0 2
26 -6 58 -17 73 -26 161 -28 197 -5 65 43 83 172 44 325 -11 45 -18 85 -15 89
4 3 33 -7 67 -23 106 -51 162 -130 184 -259 6 -38 6 -38 47 -33 22 3 60 19 83
36 24 17 47 31 51 31 4 0 4 -44 1 -97 -5 -104 -30 -189 -70 -239 l-21 -28 43
25 c74 41 119 87 153 157 31 62 33 74 32 162 0 63 -10 140 -29 230 -16 78 -28
169 -29 217 -1 54 -4 79 -12 75 -48 -30 -123 -89 -138 -110 -11 -14 -27 -53
-36 -85 l-16 -59 -83 88 c-194 208 -284 413 -267 611 3 40 4 73 3 73 -2 0 -17
-15 -34 -32z"/>
<path d="M1280 8483 c-93 -15 -216 -76 -291 -142 -64 -56 -134 -162 -167 -251
l-27 -75 -3 -3568 c-2 -3912 -7 -3637 57 -3769 66 -138 202 -259 347 -309 l69
-24 3615 0 c3507 0 3617 1 3670 19 96 32 173 79 241 146 79 78 132 170 159
275 20 77 20 113 20 3630 0 3504 0 3553 -20 3629 -28 110 -74 190 -156 272
-78 79 -192 143 -292 163 -37 8 -458 11 -1370 11 l-1317 0 -30 -57 c-16 -31
-54 -80 -84 -110 l-55 -53 97 0 c57 0 97 -4 97 -10 0 -6 452 -11 1283 -12
l1282 -3 68 -32 c79 -38 163 -114 200 -181 61 -113 57 162 57 -3612 0 -3026
-2 -3453 -15 -3503 -38 -147 -141 -258 -283 -306 l-61 -21 -3486 0 -3486 0
-61 21 c-142 48 -245 159 -283 306 -13 50 -15 477 -15 3503 0 3774 -4 3499 57
3612 37 67 121 143 200 181 l68 32 1628 3 c1011 1 1627 6 1627 12 0 5 34 10
75 12 l75 3 -36 45 c-20 25 -50 73 -67 108 l-31 62 -1666 -1 c-916 -1 -1676
-4 -1690 -6z"/>
<path d="M4720 8130 l0 -50 510 0 510 0 0 50 0 50 -510 0 -510 0 0 -50z"/>
<path d="M1380 8146 c-93 -25 -172 -94 -217 -191 l-28 -60 -3 -3455 c-2 -3448
-2 -3455 18 -3522 26 -85 103 -173 182 -209 l53 -24 3500 0 3500 0 46 21 c56
26 123 85 156 137 57 90 53 -149 51 3603 l-3 3449 -29 62 c-33 73 -103 143
-173 176 l-48 22 -1272 3 -1273 2 0 -114 0 -115 -136 -115 -136 -116 1195 0
1194 0 7 -87 c14 -197 19 -1062 7 -1289 -83 -1601 -488 -2805 -1249 -3719
-119 -142 -445 -460 -589 -574 -347 -275 -733 -504 -1130 -671 l-123 -51 -121
51 c-434 182 -857 440 -1214 739 -128 107 -405 386 -517 521 -761 918 -1157
2117 -1239 3745 -11 228 -5 1037 9 1240 l7 90 1539 5 1538 5 -131 113 -131
113 0 114 0 115 -1597 -1 c-1229 0 -1608 -3 -1643 -13z m4536 -6871 c19 -14
45 -46 60 -70 l26 -45 349 0 c342 0 349 0 349 -20 0 -13 -7 -20 -20 -20 -19 0
-20 -7 -20 -120 l0 -120 -25 0 c-14 0 -25 3 -26 8 -1 4 -2 32 -3 62 l-1 55
-37 3 c-33 3 -37 1 -43 -28 -9 -42 -30 -60 -71 -60 -42 0 -74 30 -74 69 0 34
30 61 67 61 20 0 23 5 23 35 l0 35 -75 0 -75 0 0 -120 0 -120 -25 0 c-22 0
-25 4 -25 35 0 32 -2 35 -19 25 -11 -5 -41 -10 -66 -10 -40 0 -52 5 -81 34
-25 25 -34 43 -34 68 0 33 1 34 33 30 41 -5 67 19 47 43 -9 10 -32 15 -76 15
l-64 0 0 -120 0 -120 -25 0 c-22 0 -25 4 -25 35 0 33 -1 34 -26 25 -36 -14
-95 -12 -123 4 -22 12 -28 12 -49 -2 -13 -9 -46 -16 -72 -16 -79 -1 -126 58
-81 103 18 18 18 18 0 30 -51 31 3 119 66 107 32 -6 277 -7 283 -2 2 2 -11 20
-28 40 -20 22 -44 38 -66 42 -23 4 -34 12 -34 23 0 39 39 42 86 6z m-1806
-135 c0 -15 -7 -20 -25 -20 l-25 0 0 -120 0 -120 -25 0 c-24 0 -25 2 -25 65
l0 65 -39 0 c-36 0 -39 -2 -45 -35 -8 -39 -30 -55 -75 -55 -38 0 -71 31 -71
65 0 32 33 65 65 65 22 0 25 4 25 35 l0 35 -70 0 -69 0 -3 -117 -3 -118 -27
-3 -28 -3 0 76 0 76 -67 -3 c-62 -3 -68 -5 -71 -25 -3 -18 2 -23 17 -23 15 0
21 6 21 21 0 16 5 20 28 17 35 -4 41 -39 13 -67 -51 -51 -150 -5 -137 62 10
52 28 61 116 65 71 4 80 6 80 23 0 18 -9 19 -125 19 l-125 0 0 -120 0 -120
-25 0 -25 0 0 120 0 120 -30 0 -30 0 0 -120 0 -120 -30 0 -30 0 0 75 c0 41 -2
75 -4 75 -2 0 -27 5 -56 10 -55 10 -90 6 -90 -11 0 -5 19 -9 43 -9 58 0 89
-23 85 -63 -2 -22 -12 -38 -35 -53 -24 -16 -29 -24 -20 -33 8 -8 6 -15 -9 -25
-17 -13 -22 -12 -49 15 -17 16 -38 29 -48 29 -23 0 -38 31 -26 53 13 22 55 22
67 1 13 -23 65 -11 60 14 -3 13 -14 17 -50 17 -55 1 -78 17 -78 56 0 47 35 62
130 57 73 -4 80 -3 80 14 0 16 -10 18 -120 18 -113 0 -120 1 -120 20 0 20 7
20 550 20 543 0 550 0 550 -20z m1320 0 c0 -13 -7 -20 -20 -20 -18 0 -20 -8
-22 -117 l-3 -118 -27 -3 -28 -3 0 65 0 66 -40 0 c-36 0 -40 -2 -40 -25 0 -35
-33 -65 -73 -65 -35 0 -60 19 -71 56 -9 28 27 72 62 76 23 3 27 8 27 33 l0 30
-72 3 -73 3 0 -121 0 -121 -27 3 c-27 3 -28 6 -31 66 l-3 63 -37 -3 c-31 -2
-38 -7 -40 -28 -8 -56 -71 -79 -120 -44 -48 34 -17 114 45 114 20 0 23 5 23
35 l0 35 -84 0 -84 0 11 -30 c15 -40 -5 -79 -51 -99 -17 -8 -32 -18 -32 -23 0
-17 50 -40 75 -34 22 6 25 3 25 -18 0 -30 -27 -41 -75 -32 -37 7 -75 47 -75
78 0 10 -7 21 -15 24 -8 4 -15 16 -15 29 0 21 4 23 38 18 46 -6 77 14 68 44
-9 28 -48 43 -111 43 l-55 0 0 -121 0 -120 -27 3 c-23 2 -29 8 -31 35 -3 30
-5 31 -36 26 -41 -6 -94 19 -101 50 -3 12 -6 45 -7 72 -3 43 -6 50 -25 53 -15
2 -23 10 -23 23 0 19 14 19 600 19 593 0 600 0 600 -20z m-1310 -332 c32 -25
34 -29 19 -43 -15 -15 -18 -14 -45 8 -16 13 -46 30 -67 36 l-37 13 22 17 c26
21 51 14 108 -31z m1333 -6 c23 -22 25 -28 13 -40 -12 -12 -20 -9 -56 17 -24
17 -51 31 -60 31 -26 0 -31 12 -14 31 15 17 19 17 53 3 20 -8 48 -27 64 -42z
m1265 4 c29 -27 31 -32 17 -45 -13 -13 -18 -12 -42 11 -16 14 -46 31 -67 38
l-39 13 23 17 c29 22 58 12 108 -34z"/>
<path d="M5650 1115 c-17 -20 3 -45 36 -45 19 0 24 -5 24 -24 0 -19 -6 -25
-27 -28 -20 -2 -28 -9 -28 -23 0 -15 8 -21 32 -23 50 -5 73 12 73 56 0 36 1
37 37 37 34 0 38 3 38 25 0 23 -4 25 -47 28 -29 2 -48 -1 -48 -7 0 -16 -41
-13 -60 4 -15 14 -18 14 -30 0z"/>
<path d="M5898 1108 c29 -29 -6 -88 -53 -88 -14 0 -25 -4 -25 -8 0 -32 79 -44
118 -16 18 12 22 25 22 70 l0 54 -37 0 c-29 0 -34 -3 -25 -12z"/>
<path d="M6216 1091 c7 -35 -23 -71 -61 -71 -30 0 -33 -15 -6 -30 28 -15 73
-12 99 6 18 12 22 25 22 70 0 53 0 54 -30 54 -27 0 -29 -2 -24 -29z"/>
<path d="M6530 1085 c0 -36 1 -36 37 -33 34 3 37 6 37 33 0 27 -3 30 -37 33
-36 3 -37 3 -37 -33z"/>
<path d="M6433 994 c-7 -18 11 -39 26 -30 17 11 13 46 -4 46 -9 0 -18 -7 -22
-16z"/>
<path d="M3930 1084 c0 -35 1 -35 38 -32 34 3 37 6 40 36 3 31 2 32 -37 32
-40 0 -41 -1 -41 -36z"/>
<path d="M3837 997 c-7 -19 8 -41 22 -33 16 10 14 46 -3 46 -8 0 -16 -6 -19
-13z"/>
<path d="M4330 1074 c0 -54 14 -84 40 -84 43 0 50 10 50 71 l0 59 -45 0 -45 0
0 -46z"/>
<path d="M4912 1088 c3 -30 6 -33 41 -36 36 -3 37 -3 37 32 0 35 -1 36 -41 36
-39 0 -40 -1 -37 -32z"/>
<path d="M5250 1085 c0 -34 1 -35 40 -35 39 0 40 1 40 35 0 34 -1 35 -40 35
-39 0 -40 -1 -40 -35z"/>
<path d="M4823 994 c-7 -18 11 -39 26 -30 17 11 13 46 -4 46 -9 0 -18 -7 -22
-16z"/>
<path d="M5164 995 c-9 -23 14 -45 26 -25 5 8 8 19 7 24 -6 17 -27 18 -33 1z"/>
<path d="M4720 8011 c0 -37 4 -42 171 -185 l171 -146 166 0 167 0 173 147
c167 142 172 147 172 185 l0 38 -510 0 -510 0 0 -39z"/>
<path d="M5060 7588 c0 -55 20 -169 82 -450 45 -208 85 -375 89 -370 4 4 43
175 88 380 58 267 81 392 81 442 l0 70 -170 0 -170 0 0 -72z"/>
<path d="M1904 7513 c-14 -128 -11 -1146 4 -1333 73 -935 208 -1587 464 -2230
372 -933 952 -1639 1769 -2150 206 -129 687 -370 739 -370 9 0 57 17 106 39
1253 544 2086 1476 2527 2826 196 601 308 1260 348 2045 12 236 7 1164 -7
1223 l-6 27 -1179 0 -1179 0 0 -50 0 -50 1129 0 1129 0 6 -52 c13 -120 17
-680 7 -948 -63 -1605 -429 -2778 -1149 -3682 -137 -172 -450 -485 -622 -622
-163 -129 -381 -278 -550 -375 -128 -74 -399 -209 -502 -251 l-58 -24 -57 23
c-216 87 -602 301 -823 456 -391 275 -750 634 -1024 1024 -497 708 -819 1669
-930 2776 -50 496 -66 1108 -40 1573 l6 102 1474 0 1474 0 0 50 0 50 -1524 0
-1524 0 -8 -77z"/>
<path d="M5314 6665 c-8 -20 -5 -34 64 -305 115 -453 155 -729 156 -1085 0
-214 -3 -268 -22 -377 -51 -297 -151 -512 -316 -686 -89 -93 -163 -149 -284
-215 -48 -26 -76 -45 -62 -42 14 2 48 10 75 15 28 6 93 25 145 42 609 200
1029 731 1213 1533 14 61 28 125 31 143 l6 34 -31 -27 c-80 -66 -156 -86 -222
-57 -42 19 -69 42 -49 42 24 0 101 83 122 132 33 77 26 198 -17 290 -36 77
-110 161 -167 190 -48 24 -121 26 -163 5 -40 -21 -84 -73 -113 -132 l-23 -48
-25 49 c-88 177 -290 514 -308 514 -2 0 -7 -7 -10 -15z"/>
<path d="M5342 5453 c-117 -401 -254 -703 -416 -920 -76 -101 -80 -105 -90
-82 -74 180 -194 299 -511 507 -363 238 -438 293 -532 390 -29 29 -58 52 -66
50 -50 -11 -1444 -524 -1439 -529 4 -3 86 -37 182 -77 96 -39 575 -236 1065
-437 l890 -367 75 6 c103 7 219 39 318 86 106 50 162 89 238 165 168 168 270
407 319 745 18 124 31 518 18 573 -8 37 -10 33 -51 -110z"/>
</g>
</svg>
